<mxfile host="app.diagrams.net" agent="Mozilla/5.0 (Macintosh; Intel Mac OS X 10_15_7) AppleWebKit/537.36 (KHTML, like Gecko) Chrome/135.0.0.0 Safari/537.36 OPR/120.0.0.0" version="26.1.1">
  <diagram name="Page-1" id="G74SSgv-F9XfAhfDKgGF">
    <mxGraphModel dx="1260" dy="871" grid="1" gridSize="10" guides="1" tooltips="1" connect="1" arrows="1" fold="1" page="1" pageScale="1" pageWidth="827" pageHeight="1169" math="0" shadow="0">
      <root>
        <mxCell id="0" />
        <mxCell id="1" parent="0" />
        <mxCell id="_3KN95tTgnMVk0uJyabU-12" value="" style="rounded=1;whiteSpace=wrap;html=1;strokeColor=#CCCCCC;fillColor=light-dark(#f6f8fa, #212121);strokeWidth=1;perimeterSpacing=0;arcSize=1;" vertex="1" parent="1">
          <mxGeometry x="40" y="80" width="360" height="530" as="geometry" />
        </mxCell>
        <mxCell id="_3KN95tTgnMVk0uJyabU-14" value="" style="shape=image;html=1;verticalAlign=top;verticalLabelPosition=bottom;labelBackgroundColor=#ffffff;imageAspect=0;aspect=fixed;image=https://cdn1.iconfinder.com/data/icons/picons-social/57/github_rounded-128.png" vertex="1" parent="1">
          <mxGeometry x="70" y="90" width="40" height="40" as="geometry" />
        </mxCell>
        <mxCell id="_3KN95tTgnMVk0uJyabU-17" value="FDio" style="text;html=1;align=left;verticalAlign=middle;whiteSpace=wrap;rounded=0;fontSize=20;fontStyle=0" vertex="1" parent="1">
          <mxGeometry x="120" y="95" width="60" height="30" as="geometry" />
        </mxCell>
        <mxCell id="_3KN95tTgnMVk0uJyabU-18" value="&lt;h4&gt;Organisation&lt;/h4&gt;" style="rounded=1;whiteSpace=wrap;html=1;strokeColor=#CCCCCC;align=left;spacingLeft=15;spacingTop=400;fontStyle=0;arcSize=2;" vertex="1" parent="1">
          <mxGeometry x="70" y="140" width="300" height="440" as="geometry" />
        </mxCell>
        <mxCell id="_3KN95tTgnMVk0uJyabU-19" value="&lt;h4&gt;&lt;br&gt;&lt;/h4&gt;" style="rounded=1;whiteSpace=wrap;html=1;strokeColor=#E6E6E6;align=left;spacingLeft=10;spacingTop=0;fontStyle=0;arcSize=2;" vertex="1" parent="1">
          <mxGeometry x="90" y="160" width="240" height="180" as="geometry" />
        </mxCell>
        <mxCell id="_3KN95tTgnMVk0uJyabU-20" value="&lt;h4&gt;&lt;br&gt;&lt;/h4&gt;" style="rounded=1;whiteSpace=wrap;html=1;strokeColor=#E6E6E6;align=left;spacingLeft=10;spacingTop=0;fontStyle=0;arcSize=2;" vertex="1" parent="1">
          <mxGeometry x="100" y="170" width="240" height="180" as="geometry" />
        </mxCell>
        <mxCell id="_3KN95tTgnMVk0uJyabU-21" value="&lt;h4&gt;Repository&lt;/h4&gt;" style="rounded=1;whiteSpace=wrap;html=1;strokeColor=#CCCCCC;align=left;spacingLeft=15;spacingTop=0;fontStyle=0;arcSize=2;spacingBottom=140;" vertex="1" parent="1">
          <mxGeometry x="110" y="180" width="240" height="180" as="geometry" />
        </mxCell>
        <mxCell id="_3KN95tTgnMVk0uJyabU-22" value="{workflow}.yml" style="whiteSpace=wrap;html=1;aspect=fixed;fontFamily=Courier New;fontStyle=1" vertex="1" parent="1">
          <mxGeometry x="210" y="212.5" width="115" height="115" as="geometry" />
        </mxCell>
        <mxCell id="_3KN95tTgnMVk0uJyabU-23" value="" style="rounded=1;whiteSpace=wrap;html=1;strokeColor=#CCCCCC;fillColor=light-dark(#f6f8fa, #212121);strokeWidth=1;perimeterSpacing=0;arcSize=1;fontColor=light-dark(#2da34b, #ededed);" vertex="1" parent="1">
          <mxGeometry x="440" y="80" width="680" height="530" as="geometry" />
        </mxCell>
        <mxCell id="_3KN95tTgnMVk0uJyabU-25" value="Nomad Cluster" style="text;html=1;align=left;verticalAlign=middle;whiteSpace=wrap;rounded=0;fontSize=20;fontStyle=0" vertex="1" parent="1">
          <mxGeometry x="470" y="95" width="150" height="30" as="geometry" />
        </mxCell>
        <mxCell id="_3KN95tTgnMVk0uJyabU-26" value="&lt;h4&gt;gha-runner (prod)&lt;/h4&gt;" style="rounded=1;whiteSpace=wrap;html=1;strokeColor=#CCCCCC;align=left;spacingLeft=15;spacingTop=210;fontStyle=0;arcSize=2;" vertex="1" parent="1">
          <mxGeometry x="790" y="140" width="300" height="250" as="geometry" />
        </mxCell>
        <mxCell id="_3KN95tTgnMVk0uJyabU-27" value="&lt;h4&gt;&lt;br&gt;&lt;/h4&gt;" style="rounded=1;whiteSpace=wrap;html=1;strokeColor=#E6E6E6;align=left;spacingLeft=10;spacingTop=0;fontStyle=0;arcSize=2;" vertex="1" parent="1">
          <mxGeometry x="810" y="155" width="240" height="180" as="geometry" />
        </mxCell>
        <mxCell id="_3KN95tTgnMVk0uJyabU-28" value="&lt;h4&gt;&lt;br&gt;&lt;/h4&gt;" style="rounded=1;whiteSpace=wrap;html=1;strokeColor=#E6E6E6;align=left;spacingLeft=10;spacingTop=0;fontStyle=0;arcSize=2;" vertex="1" parent="1">
          <mxGeometry x="820" y="165" width="240" height="180" as="geometry" />
        </mxCell>
        <mxCell id="_3KN95tTgnMVk0uJyabU-29" value="&lt;h4&gt;empheral gha runner job&lt;/h4&gt;" style="rounded=1;whiteSpace=wrap;html=1;strokeColor=#CCCCCC;align=left;spacingLeft=15;spacingTop=0;fontStyle=0;arcSize=2;spacingBottom=130;" vertex="1" parent="1">
          <mxGeometry x="830" y="175" width="240" height="180" as="geometry" />
        </mxCell>
        <mxCell id="_3KN95tTgnMVk0uJyabU-31" value="&lt;font style=&quot;font-size: 10px;&quot;&gt;job&lt;/font&gt;" style="rounded=1;whiteSpace=wrap;html=1;arcSize=5;fillColor=light-dark(#f6f8fa, #272727);strokeColor=#CCCCCC;align=left;spacingLeft=10;" vertex="1" parent="1">
          <mxGeometry x="847" y="226.5" width="120" height="37" as="geometry" />
        </mxCell>
        <mxCell id="_3KN95tTgnMVk0uJyabU-34" value="" style="endArrow=classic;html=1;rounded=0;elbow=vertical;fontColor=light-dark(#2ea44e, #88b45c);strokeColor=light-dark(#2da34b, #214210);strokeWidth=3;entryX=0.5;entryY=1;entryDx=0;entryDy=0;" edge="1" parent="1" source="_3KN95tTgnMVk0uJyabU-31" target="_3KN95tTgnMVk0uJyabU-18">
          <mxGeometry width="50" height="50" relative="1" as="geometry">
            <mxPoint x="1180" y="239.52941176470586" as="sourcePoint" />
            <mxPoint x="420" y="540" as="targetPoint" />
            <Array as="points">
              <mxPoint x="1160" y="245" />
              <mxPoint x="1160" y="640" />
              <mxPoint x="220" y="640" />
            </Array>
          </mxGeometry>
        </mxCell>
        <mxCell id="_3KN95tTgnMVk0uJyabU-46" value="&lt;h1&gt;&lt;font style=&quot;&quot;&gt;3&lt;/font&gt;&lt;/h1&gt;" style="edgeLabel;html=1;align=center;verticalAlign=middle;resizable=0;points=[];labelBackgroundColor=none;fontColor=#2DA34B;" vertex="1" connectable="0" parent="_3KN95tTgnMVk0uJyabU-34">
          <mxGeometry x="0.0686" y="-2" relative="1" as="geometry">
            <mxPoint x="240" y="-178" as="offset" />
          </mxGeometry>
        </mxCell>
        <mxCell id="_3KN95tTgnMVk0uJyabU-35" value="&lt;h4&gt;gha-dispatcher (prod)&lt;/h4&gt;" style="rounded=1;whiteSpace=wrap;html=1;strokeColor=#CCCCCC;align=left;spacingLeft=15;spacingTop=400;fontStyle=0;arcSize=2;" vertex="1" parent="1">
          <mxGeometry x="470" y="140" width="300" height="440" as="geometry" />
        </mxCell>
        <mxCell id="_3KN95tTgnMVk0uJyabU-38" value="&lt;h4&gt;gha dispatcher job&lt;/h4&gt;" style="rounded=1;whiteSpace=wrap;html=1;strokeColor=#CCCCCC;align=left;spacingLeft=15;spacingTop=0;fontStyle=0;arcSize=2;spacingBottom=130;" vertex="1" parent="1">
          <mxGeometry x="490" y="175" width="240" height="180" as="geometry" />
        </mxCell>
        <mxCell id="_3KN95tTgnMVk0uJyabU-39" value="&lt;font style=&quot;font-size: 10px;&quot;&gt;job&lt;/font&gt;" style="rounded=1;whiteSpace=wrap;html=1;arcSize=5;fillColor=light-dark(#f6f8fa, #272727);strokeColor=#CCCCCC;align=left;spacingLeft=10;" vertex="1" parent="1">
          <mxGeometry x="510" y="226.5" width="120" height="37" as="geometry" />
        </mxCell>
        <mxCell id="_3KN95tTgnMVk0uJyabU-40" value="" style="endArrow=classic;html=1;rounded=0;elbow=vertical;fontColor=#336600;strokeColor=#2DA34B;strokeWidth=3;exitX=0;exitY=0.5;exitDx=0;exitDy=0;entryX=1.004;entryY=0.284;entryDx=0;entryDy=0;entryPerimeter=0;" edge="1" parent="1" source="_3KN95tTgnMVk0uJyabU-38" target="_3KN95tTgnMVk0uJyabU-18">
          <mxGeometry width="50" height="50" relative="1" as="geometry">
            <mxPoint x="727" y="110" as="sourcePoint" />
            <mxPoint x="180" y="405" as="targetPoint" />
            <Array as="points" />
          </mxGeometry>
        </mxCell>
        <mxCell id="_3KN95tTgnMVk0uJyabU-41" value="&lt;h1&gt;&lt;font style=&quot;&quot;&gt;&lt;b&gt;1&lt;/b&gt;&lt;/font&gt;&lt;/h1&gt;" style="edgeLabel;html=1;align=center;verticalAlign=middle;resizable=0;points=[];labelBackgroundColor=none;labelBorderColor=none;fontColor=#2DA34B;" vertex="1" connectable="0" parent="_3KN95tTgnMVk0uJyabU-40">
          <mxGeometry x="0.0017" y="1" relative="1" as="geometry">
            <mxPoint x="1" y="-16" as="offset" />
          </mxGeometry>
        </mxCell>
        <mxCell id="_3KN95tTgnMVk0uJyabU-44" value="" style="endArrow=classic;html=1;rounded=0;elbow=vertical;fontColor=#336600;strokeColor=#2DA34B;strokeWidth=3;exitX=0;exitY=0.5;exitDx=0;exitDy=0;entryX=0;entryY=0.5;entryDx=0;entryDy=0;" edge="1" parent="1" target="_3KN95tTgnMVk0uJyabU-29">
          <mxGeometry width="50" height="50" relative="1" as="geometry">
            <mxPoint x="730" y="264.5" as="sourcePoint" />
            <mxPoint x="611" y="264.5" as="targetPoint" />
            <Array as="points" />
          </mxGeometry>
        </mxCell>
        <mxCell id="_3KN95tTgnMVk0uJyabU-45" value="&lt;h1&gt;&lt;font style=&quot;&quot;&gt;&lt;b&gt;2&lt;/b&gt;&lt;/font&gt;&lt;/h1&gt;" style="edgeLabel;html=1;align=center;verticalAlign=middle;resizable=0;points=[];labelBackgroundColor=none;fontColor=#2DA34B;" vertex="1" connectable="0" parent="_3KN95tTgnMVk0uJyabU-44">
          <mxGeometry x="0.0017" y="1" relative="1" as="geometry">
            <mxPoint x="1" y="-16" as="offset" />
          </mxGeometry>
        </mxCell>
        <mxCell id="_3KN95tTgnMVk0uJyabU-47" value="" style="endArrow=none;html=1;rounded=0;elbow=vertical;fontColor=#336600;strokeColor=#2DA34B;strokeWidth=3;entryX=0.5;entryY=1;entryDx=0;entryDy=0;exitX=0.5;exitY=1;exitDx=0;exitDy=0;startArrow=classic;startFill=0;" edge="1" parent="1" source="_3KN95tTgnMVk0uJyabU-26" target="_3KN95tTgnMVk0uJyabU-22">
          <mxGeometry width="50" height="50" relative="1" as="geometry">
            <mxPoint x="420" y="470" as="sourcePoint" />
            <mxPoint x="221" y="390" as="targetPoint" />
            <Array as="points">
              <mxPoint x="940" y="430" />
              <mxPoint x="268" y="430" />
            </Array>
          </mxGeometry>
        </mxCell>
        <mxCell id="_3KN95tTgnMVk0uJyabU-48" value="&lt;h1&gt;&lt;font style=&quot;&quot;&gt;&lt;b&gt;4&lt;/b&gt;&lt;/font&gt;&lt;/h1&gt;" style="edgeLabel;html=1;align=center;verticalAlign=middle;resizable=0;points=[];labelBackgroundColor=none;labelBorderColor=none;fontColor=#2DA34B;" vertex="1" connectable="0" parent="_3KN95tTgnMVk0uJyabU-47">
          <mxGeometry x="0.0017" y="1" relative="1" as="geometry">
            <mxPoint x="1" y="-16" as="offset" />
          </mxGeometry>
        </mxCell>
        <mxCell id="_3KN95tTgnMVk0uJyabU-49" value="" style="endArrow=none;html=1;rounded=0;elbow=vertical;fontColor=#336600;strokeColor=#2DA34B;strokeWidth=3;entryX=0.75;entryY=1;entryDx=0;entryDy=0;exitX=1;exitY=0.75;exitDx=0;exitDy=0;startArrow=classic;startFill=0;" edge="1" parent="1" source="_3KN95tTgnMVk0uJyabU-18" target="_3KN95tTgnMVk0uJyabU-26">
          <mxGeometry width="50" height="50" relative="1" as="geometry">
            <mxPoint x="950" y="400" as="sourcePoint" />
            <mxPoint x="278" y="338" as="targetPoint" />
            <Array as="points">
              <mxPoint x="1015" y="470" />
            </Array>
          </mxGeometry>
        </mxCell>
        <mxCell id="_3KN95tTgnMVk0uJyabU-50" value="&lt;h1&gt;&lt;font style=&quot;&quot;&gt;&lt;b&gt;5&lt;/b&gt;&lt;/font&gt;&lt;/h1&gt;" style="edgeLabel;html=1;align=center;verticalAlign=middle;resizable=0;points=[];labelBackgroundColor=none;labelBorderColor=none;fontColor=#2DA34B;" vertex="1" connectable="0" parent="_3KN95tTgnMVk0uJyabU-49">
          <mxGeometry x="0.0017" y="1" relative="1" as="geometry">
            <mxPoint x="1" y="-16" as="offset" />
          </mxGeometry>
        </mxCell>
      </root>
    </mxGraphModel>
  </diagram>
</mxfile>
